<?xml version="1.0" encoding="iso-8859-1"?>
<!-- Uploaded to: SVG Repo, www.svgrepo.com, Generator: SVG Repo Mixer Tools -->
<!DOCTYPE svg PUBLIC "-//W3C//DTD SVG 1.1//EN" "http://www.w3.org/Graphics/SVG/1.1/DTD/svg11.dtd">
<svg fill="#000000" height="800px" width="800px" version="1.1" id="Capa_1" xmlns="http://www.w3.org/2000/svg" xmlns:xlink="http://www.w3.org/1999/xlink" 
	 viewBox="0 0 242.667 242.667" xml:space="preserve">
<path d="M0,0v242.667h242.667V0H0z M90.536,184.197c-0.476,0.404-1.018-0.156-1.47-0.403
	c-20.739-11.316-33.311-28.534-37.179-51.895c-2.133-12.88-0.428-25.378,4.523-37.442c0.218-0.531,0.275-1.19,0.921-1.468
	c0.514,0.271,0.556,0.796,0.718,1.241c10.765,29.488,21.527,58.978,32.277,88.471C90.501,183.18,91.034,183.774,90.536,184.197z
	 M142.092,188.497c-6.783,2.11-13.727,3.202-20.844,3.102c-6.113,0.091-12.09-0.829-18.008-2.302
	c-1.568-0.39-1.849-1.017-1.33-2.515c6.682-19.278,13.312-38.574,19.969-57.861c0.146-0.424,0.134-1.154,0.744-1.104
	c0.521,0.044,0.56,0.74,0.722,1.183c4.363,11.917,8.715,23.838,13.069,35.759c2.477,6.782,4.983,13.554,7.418,20.352
	C144.745,187.662,145.362,187.479,142.092,188.497z M155.603,162.185c-8.051-23.895-16.093-47.792-24.134-71.689
	c-0.724-2.15-0.674-2.222,1.647-2.415c1.797-0.15,3.598-0.26,5.393-0.422c1.847-0.166,3.057-1.367,2.952-2.876
	c-0.11-1.575-1.342-2.611-3.237-2.521c-5.567,0.265-11.127,0.721-16.697,0.866c-6.122,0.159-12.234-0.329-18.338-0.807
	c-0.653-0.051-1.313-0.093-1.966-0.06c-1.532,0.078-2.456,0.983-2.562,2.446c-0.115,1.596,0.651,2.672,2.255,2.883
	c1.84,0.242,3.698,0.374,5.552,0.477c1.406,0.078,2.212,0.622,2.722,2.052c3.121,8.758,6.327,17.487,9.563,26.203
	c0.525,1.413,0.549,2.668,0.063,4.111c-4.713,13.997-9.361,28.015-14.04,42.023c-0.201,0.601-0.252,1.291-0.807,1.764
	c-0.67-0.305-0.651-0.988-0.83-1.52c-7.113-21.152-14.21-42.309-21.312-63.465c-1.01-3.007-2.047-6.005-3.052-9.013
	c-0.596-1.785-0.532-1.9,1.392-2.098c1.848-0.19,3.704-0.297,5.555-0.451c2.063-0.172,3.071-1.16,3.004-2.926
	c-0.066-1.737-1.151-2.629-3.321-2.48c-6.817,0.468-13.631,0.954-20.471,0.884c-0.219-0.002-0.438,0.004-0.656-0.007
	c-1.562-0.079-1.742-0.346-0.867-1.59c1.163-1.654,2.352-3.3,3.651-4.848c12.11-14.436,27.48-23.042,46.226-25.152
	c20.614-2.32,38.802,3.561,54.539,17.055c0.206,0.177,0.403,0.368,0.581,0.573c0.06,0.069,0.047,0.2,0.095,0.449
	c-0.743,0.082-1.482,0.124-2.208,0.248c-7.294,1.246-11.515,8.237-9.621,15.883c0.91,3.675,2.827,6.866,4.805,10.017
	c3.073,4.895,5.667,9.971,6.831,15.706c1.176,5.795,0.463,11.453-1.17,17.012c-3.344,11.386-6.812,22.736-10.238,34.098
	c-0.104,0.344-0.087,0.79-0.586,0.945C155.76,163.272,155.766,162.67,155.603,162.185z M191.515,126.715
	c-2.504,24.118-14.077,42.397-34.388,55.247c-0.207-0.105-0.413-0.209-0.62-0.314c0.813-2.412,1.61-4.829,2.442-7.234
	c6.003-17.365,11.987-34.736,18.036-52.084c1.836-5.265,3.875-10.455,4.971-15.954c1.152-5.779,1.397-11.59,0.878-17.446
	c-0.023-0.26-0.026-0.521-0.042-0.857C187.594,91.646,192.675,115.548,191.515,126.715z"/>
</svg>